<svg xmlns="http://www.w3.org/2000/svg" xmlns:xlink="http://www.w3.org/1999/xlink" width="500" zoomAndPan="magnify" viewBox="0 0 375 374.999991" height="500" preserveAspectRatio="xMidYMid meet" version="1.0"><path fill="#87a285" d="M 375.027344 187.53125 C 375.027344 291.082031 291.082031 375.027344 187.53125 375.027344 C 83.976562 375.027344 0.0273438 291.082031 0.0273438 187.53125 C 0.0273438 83.976562 83.976562 0.03125 187.53125 0.03125 C 291.082031 0.03125 375.027344 83.976562 375.027344 187.53125 " fill-opacity="1" fill-rule="nonzero"/><path fill="#1d4062" d="M 187.53125 375.027344 C 224.785156 375.027344 259.472656 364.113281 288.65625 345.378906 C 286.527344 327.464844 283.738281 309.050781 280.945312 305.21875 C 275.210938 297.328125 244.382812 265.050781 187.53125 265.050781 C 130.679688 265.050781 99.851562 297.328125 94.113281 305.21875 C 91.320312 309.050781 88.53125 327.46875 86.40625 345.378906 C 115.589844 364.113281 150.277344 375.027344 187.53125 375.027344 " fill-opacity="1" fill-rule="nonzero"/><path fill="#f8de9c" d="M 185.457031 250.820312 L 160.460938 237.5 L 160.460938 267.199219 C 160.460938 267.199219 165.019531 298.042969 185.457031 298.042969 C 205.902344 298.042969 210.457031 267.199219 210.457031 267.199219 L 210.457031 237.5 L 185.457031 250.820312 " fill-opacity="1" fill-rule="nonzero"/><path fill="#e9cc87" d="M 185.457031 250.820312 L 160.460938 267.199219 L 160.460938 237.511719 Z M 185.457031 250.820312 " fill-opacity="1" fill-rule="nonzero"/><path fill="#fde9ac" d="M 249.058594 146.574219 C 249.058594 58.113281 185.457031 65.761719 185.457031 65.761719 C 185.457031 65.761719 121.863281 58.113281 121.863281 146.574219 C 121.863281 146.574219 107.277344 142.511719 107.277344 160.445312 C 107.277344 178.375 123.773438 187.703125 123.773438 187.703125 C 123.773438 187.703125 158.203125 250.820312 185.457031 250.820312 C 212.714844 250.820312 247.144531 187.703125 247.144531 187.703125 C 247.144531 187.703125 263.636719 178.375 263.636719 160.445312 C 263.636719 142.511719 249.058594 146.574219 249.058594 146.574219 " fill-opacity="1" fill-rule="nonzero"/><path fill="#f8de9c" d="M 185.457031 65.761719 C 185.457031 65.761719 121.863281 58.113281 121.863281 146.574219 C 121.863281 146.574219 107.277344 142.511719 107.277344 160.445312 C 107.277344 178.375 123.773438 187.703125 123.773438 187.703125 C 123.773438 187.703125 158.203125 250.820312 185.457031 250.820312 L 185.457031 65.761719 " fill-opacity="1" fill-rule="nonzero"/><path fill="#776361" d="M 136.511719 133.785156 L 126.832031 168.933594 L 121.863281 146.574219 C 119.421875 144.785156 113.613281 147.171875 113.613281 147.171875 C 113.613281 147.171875 93.472656 89.3125 133.285156 58.46875 C 173.097656 27.628906 223.695312 42.4375 229.042969 65.597656 C 229.042969 65.597656 255.203125 62.054688 263.636719 83.9375 C 272.082031 105.808594 259.414062 148.488281 259.414062 148.488281 C 259.414062 148.488281 255.984375 144.722656 249.058594 146.574219 L 248.40625 168.933594 L 241.59375 136.652344 C 241.59375 136.652344 227.25 117.648438 227.609375 97.203125 C 227.609375 97.203125 182.417969 148.488281 136.511719 133.785156 " fill-opacity="1" fill-rule="nonzero"/><path fill="#e8eeed" d="M 210.457031 266.964844 L 210.457031 267.199219 C 210.457031 267.199219 205.902344 298.042969 185.457031 298.042969 C 166.445312 298.042969 161.179688 271.378906 160.539062 267.644531 C 156.320312 268.476562 152.289062 269.46875 148.472656 270.609375 C 159.699219 336.0625 185.449219 370.796875 185.449219 370.796875 C 185.449219 370.796875 211.492188 335.664062 222.625 269.488281 C 218.773438 268.480469 214.679688 267.664062 210.457031 266.964844 " fill-opacity="1" fill-rule="nonzero"/></svg>