<svg xmlns="http://www.w3.org/2000/svg" xmlns:xlink="http://www.w3.org/1999/xlink" width="500" zoomAndPan="magnify" viewBox="0 0 375 374.999991" height="500" preserveAspectRatio="xMidYMid meet" version="1.0"><defs><g/></defs><g fill="#c14953" fill-opacity="1"><g transform="translate(37.500002, 288.702301)"><g><path d="M 242.234375 -22.65625 C 231.390625 -13.75 218.507812 -6.773438 203.59375 -1.734375 C 188.6875 3.296875 173.488281 5.8125 158 5.8125 C 132.050781 5.8125 109.101562 0.582031 89.15625 -9.875 C 69.21875 -20.332031 53.726562 -35.144531 42.6875 -54.3125 C 31.65625 -73.476562 26.140625 -95.648438 26.140625 -120.828125 C 26.140625 -145.609375 31.945312 -167.582031 43.5625 -186.75 C 55.1875 -205.925781 70.675781 -220.738281 90.03125 -231.1875 C 109.394531 -241.644531 130.3125 -246.875 152.78125 -246.875 C 189.5625 -246.875 219.957031 -236.804688 243.96875 -216.671875 L 216.671875 -181.234375 C 208.921875 -187.046875 200.007812 -191.984375 189.9375 -196.046875 C 179.875 -200.117188 169.035156 -202.15625 157.421875 -202.15625 C 143.085938 -202.15625 130.015625 -198.570312 118.203125 -191.40625 C 106.398438 -184.238281 97.109375 -174.457031 90.328125 -162.0625 C 83.546875 -149.675781 80.15625 -135.929688 80.15625 -120.828125 C 80.15625 -105.722656 83.738281 -91.972656 90.90625 -79.578125 C 98.070312 -67.191406 107.847656 -57.316406 120.234375 -49.953125 C 132.628906 -42.597656 146.769531 -38.921875 162.65625 -38.921875 C 182.40625 -38.921875 199.632812 -44.726562 214.34375 -56.34375 Z M 242.234375 -22.65625 "/></g></g></g></svg>